<svg width="46" height="33" viewBox="0 0 46 33" fill="none" xmlns="http://www.w3.org/2000/svg">
<path d="M4.8309 6.18507C4.8309 5.06007 5.75135 4.13962 6.87635 4.13962H39.6036C40.7286 4.13962 41.6491 3.21916 41.6491 2.09416C41.6491 0.969161 40.7286 0.0487061 39.6036 0.0487061H4.8309C2.5809 0.0487061 0.73999 1.88962 0.73999 4.13962V28.6851C0.73999 30.9351 2.5809 32.776 4.8309 32.776H10.9673C12.0923 32.776 13.0127 31.8555 13.0127 30.7305C13.0127 29.6055 12.0923 28.6851 10.9673 28.6851H6.87635C5.75135 28.6851 4.8309 27.7646 4.8309 26.6396V6.18507ZM23.24 16.4123H19.1491C18.0241 16.4123 17.1036 17.3328 17.1036 18.4578V20.0533C15.8559 21.1783 15.0582 22.7737 15.0582 24.5942C15.0582 26.4146 15.8559 28.0101 17.1036 29.1351V30.7305C17.1036 31.8555 18.0241 32.776 19.1491 32.776H23.24C24.365 32.776 25.2854 31.8555 25.2854 30.7305V29.1351C26.5332 28.0101 27.3309 26.3942 27.3309 24.5942C27.3309 22.7942 26.5332 21.1783 25.2854 20.0533V18.4578C25.2854 17.3328 24.365 16.4123 23.24 16.4123ZM21.1945 27.6623C19.4968 27.6623 18.1264 26.2919 18.1264 24.5942C18.1264 22.8964 19.4968 21.526 21.1945 21.526C22.8923 21.526 24.2627 22.8964 24.2627 24.5942C24.2627 26.2919 22.8923 27.6623 21.1945 27.6623ZM43.6945 8.23052H31.4218C30.3991 8.23052 29.3764 9.25325 29.3764 10.276V30.7305C29.3764 31.7533 30.3991 32.776 31.4218 32.776H43.6945C44.7173 32.776 45.74 31.7533 45.74 30.7305V10.276C45.74 9.25325 44.7173 8.23052 43.6945 8.23052ZM41.6491 28.6851H33.4673V12.3214H41.6491V28.6851Z" fill="white"/>
</svg>
