<svg width="49" height="49" viewBox="0 0 49 49" fill="none" xmlns="http://www.w3.org/2000/svg">
<path d="M30.6642 47.4385H43.5213C44.3738 47.4385 45.1914 47.0998 45.7942 46.497C46.3969 45.8942 46.7356 45.0767 46.7356 44.2242V5.65276C46.7356 4.80028 46.3969 3.98271 45.7942 3.37992C45.1914 2.77712 44.3738 2.43848 43.5213 2.43848H30.6642C29.8117 2.43848 28.9941 2.77712 28.3913 3.37992C27.7885 3.98271 27.4499 4.80028 27.4499 5.65276V44.2242C27.4499 45.0767 27.7885 45.8942 28.3913 46.497C28.9941 47.0998 29.8117 47.4385 30.6642 47.4385ZM30.6642 47.4385H12.9856H30.6642ZM21.0213 37.7956V47.4385V37.7956ZM27.4499 18.5099H46.7356H27.4499ZM32.2713 37.7956H41.9142H32.2713ZM4.94988 12.0813H27.4499V37.7956H4.94988C4.0974 37.7956 3.27983 37.457 2.67704 36.8542C2.07424 36.2514 1.7356 35.4338 1.7356 34.5813V15.2956C1.7356 14.4431 2.07424 13.6256 2.67704 13.0228C3.27983 12.42 4.0974 12.0813 4.94988 12.0813V12.0813Z" stroke="white" stroke-width="3"/>
</svg>
