<svg width="32" height="33" viewBox="0 0 32 33" fill="none" xmlns="http://www.w3.org/2000/svg">
<path d="M16 0.923828C7.17867 0.923828 0 8.10249 0 16.9238C0 25.7452 7.17867 32.9238 16 32.9238C24.8213 32.9238 32 25.7452 32 16.9238C32 8.10249 24.8213 0.923828 16 0.923828ZM16 3.59049C23.38 3.59049 29.3333 9.54383 29.3333 16.9238C29.3366 20.1158 28.192 23.2025 26.1085 25.6206C24.0249 28.0388 21.1414 29.6271 17.984 30.0958V20.8118H21.7813L22.3773 16.9545H17.984V14.8478C17.984 13.2478 18.5107 11.8252 20.008 11.8252H22.4147V8.45983C21.992 8.4025 21.0973 8.27849 19.4067 8.27849C15.876 8.27849 13.8067 10.1425 13.8067 14.3905V16.9545H10.1773V20.8118H13.8067V30.0625C10.693 29.55 7.86298 27.9472 5.82226 25.5403C3.78153 23.1334 2.66305 20.0794 2.66667 16.9238C2.66667 9.54383 8.62 3.59049 16 3.59049Z" fill="white"/>
</svg>
