<svg width="46" height="44" viewBox="0 0 46 44" fill="none" xmlns="http://www.w3.org/2000/svg">
<path d="M39.635 34.595V23.345C39.635 14.0257 32.0792 6.46997 22.76 6.46997C13.4408 6.46997 5.88501 14.0257 5.88501 23.345V34.595C5.47071 38.6039 0.350085 37.5554 0.26001 34.595V23.345C0.26001 10.9179 10.3344 0.844971 22.76 0.844971C35.1856 0.844971 45.26 10.9179 45.26 23.345V34.595C44.8457 38.6039 39.7251 37.5554 39.635 34.595ZM10.1038 26.1575H12.9163C13.6925 26.1575 14.3225 26.7861 14.3225 27.5637V41.6262C14.3225 42.4039 13.6925 43.0325 12.9163 43.0325H10.1038C9.32751 43.0325 8.69751 42.4039 8.69751 41.6262V27.5637C8.69751 26.7861 9.32751 26.1575 10.1038 26.1575ZM32.6038 26.1575H35.4163C36.1939 26.1575 36.8225 26.7861 36.8225 27.5637V41.6262C36.8225 42.4039 36.1939 43.0325 35.4163 43.0325H32.6038C31.8261 43.0325 31.1975 42.4039 31.1975 41.6262V27.5637C31.1975 26.7861 31.8261 26.1575 32.6038 26.1575Z" fill="white"/>
</svg>
