<svg width="46" height="52" viewBox="0 0 46 52" fill="none" xmlns="http://www.w3.org/2000/svg">
<path fill-rule="evenodd" clip-rule="evenodd" d="M45.0668 9.89425L42.5583 9.22583L35.7788 16.8399L31.9389 12.4226L38.5511 4.5869L37.9722 1.70982C36.5749 1.18181 35.1134 0.902389 33.6401 0.881568C32.033 0.853652 30.4379 1.19989 28.9544 1.89872C27.5219 2.6311 26.2271 3.66696 25.1401 4.95017C23.9301 6.2449 22.9717 7.80984 22.3261 9.54551C21.0829 12.9998 21.0829 16.8658 22.3261 20.32C15.6213 27.7706 9.00321 35.32 2.47335 42.9662C1.79798 43.9651 1.47637 45.2112 1.55999 46.4644C1.62589 47.8124 2.16257 49.0757 3.05224 49.9772C3.45103 50.4676 3.92701 50.8745 4.45765 51.1688C5.00438 51.4412 5.59292 51.5974 6.18789 51.6301C7.20417 51.6083 8.17863 51.1724 8.93441 50.4059C13.9129 45.1131 23.4517 34.2405 28.8707 27.8687C30.3405 28.5735 31.9196 28.9368 33.5147 28.9331C35.1204 28.9317 36.7096 28.5667 38.1883 27.8598C39.6671 27.1529 41.0053 26.1183 42.1241 24.8173C44.4221 22.17 45.7056 18.6076 45.6971 14.9001C45.7343 13.2035 45.5213 11.5118 45.0668 9.89425ZM6.98869 47.8303C6.8649 47.9545 6.71569 48.0419 6.55452 48.0846C6.39597 48.1156 6.23388 48.1156 6.07533 48.0846C5.90909 48.056 5.75076 47.9852 5.61222 47.8775C5.46356 47.7793 5.33786 47.6423 5.24559 47.4779C4.79534 46.9585 4.37404 45.9704 4.79534 45.4146C9.20134 40.1218 18.2738 29.7759 23.947 23.4514C24.2686 23.9309 24.6223 24.3886 25.0018 24.8173C25.3813 25.2641 25.7898 25.6782 26.2239 26.056C20.7373 32.4132 11.7903 42.6356 6.99191 47.8303H6.98869ZM42.7448 14.9001C42.7512 17.6791 41.7929 20.3491 40.069 22.3398C38.3489 24.2458 36.0353 25.3136 33.6257 25.3136C31.216 25.3136 28.9025 24.2458 27.1823 22.3398C25.9216 20.8537 25.0603 18.9937 24.6988 16.9763C24.3373 14.9589 24.4903 12.8671 25.1401 10.9441C25.5726 9.63536 26.2436 8.44374 27.1094 7.44629C27.9753 6.44884 29.0169 5.66778 30.1668 5.1536C31.2586 4.63742 32.4308 4.37311 33.6144 4.37621H34.4313L28.5877 11.1802V13.7086L34.6821 20.5598H36.8047L42.7448 13.9628V14.9001ZM7.97602 21.5297H12.8998L15.1671 24.1344L17.3476 21.6859L15.2089 19.223V19.0668L15.3922 13.0765L14.6847 11.489L5.48679 4.65229L3.5861 4.89205L0.913561 7.97619L0.701302 10.1522L6.61241 20.7523L7.97602 21.5334V21.5297ZM4.93685 8.33583L12.3788 13.872L12.2534 17.9515H8.7929L3.99454 9.37114L4.93685 8.33583ZM27.7869 33.6193L29.9545 31.1745L39.9436 42.7446C40.785 43.7434 41.2542 45.0694 41.2542 46.4481C41.2542 47.8268 40.785 49.1528 39.9436 50.1516C39.311 50.8853 38.4974 51.3868 37.6089 51.5909C36.7204 51.795 35.798 51.6922 34.9619 51.2959C34.4283 51.0286 33.9498 50.6389 33.5565 50.1516L23.4517 38.5161L25.6354 36.0532L35.7081 47.656C35.8435 47.8247 36.012 47.9553 36.2001 48.0374C36.5703 48.2072 36.9845 48.2072 37.3547 48.0374C37.5427 47.9552 37.7112 47.8246 37.8467 47.656C37.9875 47.4984 38.0971 47.309 38.1684 47.1002C38.2421 46.887 38.2814 46.6606 38.2841 46.4317C38.2809 46.2033 38.2428 45.9772 38.1716 45.7633C38.1003 45.5545 37.9907 45.365 37.85 45.2075L27.7869 33.6193Z" fill="white" fill-opacity="0.8"/>
</svg>
