<svg width="32" height="33" viewBox="0 0 32 33" fill="none" xmlns="http://www.w3.org/2000/svg">
<path d="M16 0.737793C11.651 0.737793 11.109 0.758793 9.40701 0.830793C7.69801 0.914793 6.54201 1.17979 5.52201 1.57579C4.45448 1.97881 3.48768 2.60981 2.68901 3.42479C1.87176 4.22159 1.24041 5.18893 0.840014 6.25779C0.444014 7.27779 0.179014 8.43379 0.0950142 10.1428C0.0180142 11.8458 0.00201416 12.3868 0.00201416 16.7358C0.00201416 21.0848 0.0230142 21.6268 0.0950142 23.3288C0.179014 25.0328 0.444014 26.1938 0.840014 27.2138C1.24303 28.2813 1.87403 29.2481 2.68901 30.0468C3.48581 30.8641 4.45315 31.4954 5.52201 31.8958C6.54201 32.2868 7.70301 32.5568 9.40701 32.6408C11.11 32.7178 11.651 32.7338 16 32.7338C20.349 32.7338 20.891 32.7128 22.593 32.6408C24.297 32.5568 25.458 32.2858 26.478 31.8958C27.5456 31.4928 28.5124 30.8618 29.311 30.0468C30.1293 29.2509 30.7608 28.2833 31.16 27.2138C31.551 26.1938 31.821 25.0328 31.905 23.3288C31.982 21.6258 31.998 21.0848 31.998 16.7358C31.998 12.3868 31.977 11.8448 31.905 10.1428C31.821 8.43879 31.55 7.27179 31.16 6.25779C30.757 5.19025 30.126 4.22346 29.311 3.42479C28.5151 2.60648 27.5475 1.97497 26.478 1.57579C25.458 1.17979 24.297 0.914793 22.593 0.830793C20.89 0.753793 20.349 0.737793 16 0.737793ZM16 3.61779C20.271 3.61779 20.781 3.63879 22.469 3.71079C24.026 3.78379 24.874 4.04379 25.437 4.26379C26.133 4.52072 26.763 4.92964 27.281 5.46079C27.8113 5.97662 28.2187 6.60514 28.473 7.29979C28.693 7.86279 28.953 8.71079 29.026 10.2678C29.098 11.9558 29.119 12.4668 29.119 16.7368C29.119 21.0068 29.098 21.5178 29.02 23.2058C28.936 24.7628 28.676 25.6108 28.457 26.1738C28.154 26.9248 27.816 27.4498 27.258 28.0178C26.7383 28.5456 26.1087 28.9526 25.414 29.2098C24.858 29.4298 23.998 29.6898 22.435 29.7628C20.738 29.8348 20.238 29.8558 15.956 29.8558C11.674 29.8558 11.175 29.8348 9.47601 29.7568C7.91901 29.6728 7.06001 29.4128 6.49701 29.1938C5.73701 28.8908 5.21601 28.5528 4.65801 27.9948C4.09501 27.4318 3.73701 26.8958 3.46101 26.1508C3.23701 25.5948 2.98101 24.7348 2.89801 23.1718C2.84101 21.4948 2.81401 20.9748 2.81401 16.7128C2.81401 12.4528 2.84101 11.9318 2.89801 10.2338C2.98101 8.67079 3.23701 7.81279 3.46101 7.25479C3.73701 6.49379 4.09601 5.97379 4.65801 5.41079C5.21501 4.85379 5.73701 4.49379 6.49701 4.21179C7.06001 3.99279 7.89801 3.73279 9.46101 3.65479C11.158 3.59379 11.658 3.57179 15.934 3.57179L16 3.61779ZM16 8.52479C14.9214 8.5244 13.8532 8.73656 12.8566 9.14917C11.8599 9.56177 10.9544 10.1667 10.1917 10.9294C9.42894 11.6922 8.82399 12.5977 8.41139 13.5943C7.99879 14.591 7.78662 15.6591 7.78701 16.7378C7.78662 17.8165 7.99879 18.8846 8.41139 19.8812C8.82399 20.8779 9.42894 21.7834 10.1917 22.5461C10.9544 23.3089 11.8599 23.9138 12.8566 24.3264C13.8532 24.739 14.9214 24.9512 16 24.9508C17.0787 24.9512 18.1468 24.739 19.1435 24.3264C20.1401 23.9138 21.0456 23.3089 21.8084 22.5461C22.5711 21.7834 23.176 20.8779 23.5886 19.8812C24.0012 18.8846 24.2134 17.8165 24.213 16.7378C24.2134 15.6591 24.0012 14.591 23.5886 13.5943C23.176 12.5977 22.5711 11.6922 21.8084 10.9294C21.0456 10.1667 20.1401 9.56177 19.1435 9.14917C18.1468 8.73656 17.0787 8.5244 16 8.52479V8.52479ZM16 22.0708C13.052 22.0708 10.667 19.6858 10.667 16.7378C10.667 13.7898 13.052 11.4048 16 11.4048C18.948 11.4048 21.333 13.7898 21.333 16.7378C21.333 19.6858 18.948 22.0708 16 22.0708ZM26.464 8.19679C26.4635 8.70646 26.2606 9.19507 25.9001 9.55527C25.5395 9.91547 25.0507 10.1178 24.541 10.1178C24.289 10.1178 24.0395 10.0682 23.8066 9.97172C23.5738 9.87528 23.3623 9.73393 23.1841 9.55573C23.0059 9.37754 22.8645 9.16599 22.7681 8.93316C22.6717 8.70034 22.622 8.4508 22.622 8.19879C22.622 7.94679 22.6717 7.69725 22.7681 7.46442C22.8645 7.2316 23.0059 7.02005 23.1841 6.84186C23.3623 6.66366 23.5738 6.52231 23.8066 6.42587C24.0395 6.32943 24.289 6.27979 24.541 6.27979C25.598 6.27979 26.464 7.13979 26.464 8.19679V8.19679Z" fill="white"/>
</svg>
