<svg width="46" height="40" viewBox="0 0 46 40" fill="none" xmlns="http://www.w3.org/2000/svg">
<path d="M7.77124 20.0332C8.1442 20.0332 8.50189 19.885 8.76561 19.6213C9.02933 19.3576 9.17749 18.9999 9.17749 18.627C9.17749 18.254 9.02933 17.8963 8.76561 17.6326C8.50189 17.3689 8.1442 17.2207 7.77124 17.2207C7.39828 17.2207 7.04059 17.3689 6.77687 17.6326C6.51315 17.8963 6.36499 18.254 6.36499 18.627C6.36499 18.9999 6.51315 19.3576 6.77687 19.6213C7.04059 19.885 7.39828 20.0332 7.77124 20.0332Z" fill="white"/>
<path d="M14.8025 0.345703C13.3106 0.345703 11.8799 0.938335 10.825 1.99323C9.77012 3.04812 9.17749 4.47886 9.17749 5.9707V11.5957H6.36499C4.87315 11.5957 3.44241 12.1883 2.38751 13.2432C1.33262 14.2981 0.73999 15.7289 0.73999 17.2207V25.6582C0.73999 27.15 1.33262 28.5808 2.38751 29.6357C3.44241 30.6906 4.87315 31.2832 6.36499 31.2832H9.17749V34.0957C9.17749 35.5875 9.77012 37.0183 10.825 38.0732C11.8799 39.1281 13.3106 39.7207 14.8025 39.7207H31.6775C33.1693 39.7207 34.6001 39.1281 35.655 38.0732C36.7099 37.0183 37.3025 35.5875 37.3025 34.0957V31.2832H40.115C41.6068 31.2832 43.0376 30.6906 44.0925 29.6357C45.1474 28.5808 45.74 27.15 45.74 25.6582V17.2207C45.74 15.7289 45.1474 14.2981 44.0925 13.2432C43.0376 12.1883 41.6068 11.5957 40.115 11.5957H37.3025V5.9707C37.3025 4.47886 36.7099 3.04812 35.655 1.99323C34.6001 0.938335 33.1693 0.345703 31.6775 0.345703H14.8025ZM11.99 5.9707C11.99 5.22478 12.2863 4.50941 12.8138 3.98197C13.3412 3.45452 14.0566 3.1582 14.8025 3.1582H31.6775C32.4234 3.1582 33.1388 3.45452 33.6662 3.98197C34.1937 4.50941 34.49 5.22478 34.49 5.9707V11.5957H11.99V5.9707ZM14.8025 20.0332C13.3106 20.0332 11.8799 20.6258 10.825 21.6807C9.77012 22.7356 9.17749 24.1664 9.17749 25.6582V28.4707H6.36499C5.61907 28.4707 4.9037 28.1744 4.37625 27.6469C3.84881 27.1195 3.55249 26.4041 3.55249 25.6582V17.2207C3.55249 16.4748 3.84881 15.7594 4.37625 15.232C4.9037 14.7045 5.61907 14.4082 6.36499 14.4082H40.115C40.8609 14.4082 41.5763 14.7045 42.1037 15.232C42.6312 15.7594 42.9275 16.4748 42.9275 17.2207V25.6582C42.9275 26.4041 42.6312 27.1195 42.1037 27.6469C41.5763 28.1744 40.8609 28.4707 40.115 28.4707H37.3025V25.6582C37.3025 24.1664 36.7099 22.7356 35.655 21.6807C34.6001 20.6258 33.1693 20.0332 31.6775 20.0332H14.8025ZM34.49 25.6582V34.0957C34.49 34.8416 34.1937 35.557 33.6662 36.0844C33.1388 36.6119 32.4234 36.9082 31.6775 36.9082H14.8025C14.0566 36.9082 13.3412 36.6119 12.8138 36.0844C12.2863 35.557 11.99 34.8416 11.99 34.0957V25.6582C11.99 24.9123 12.2863 24.1969 12.8138 23.6695C13.3412 23.142 14.0566 22.8457 14.8025 22.8457H31.6775C32.4234 22.8457 33.1388 23.142 33.6662 23.6695C34.1937 24.1969 34.49 24.9123 34.49 25.6582Z" fill="white"/>
</svg>
