<svg width="40" height="35" viewBox="0 0 40 35" fill="none" xmlns="http://www.w3.org/2000/svg">
<path d="M38.7557 3.53856C38.608 3.41843 38.4339 3.33506 38.2476 3.29531C38.0614 3.25555 37.8684 3.26055 37.6845 3.30988L26.1182 6.9206L14.5278 1.03513C14.3694 0.961807 14.1969 0.923828 14.0223 0.923828C13.8477 0.923828 13.6752 0.961807 13.5168 1.03513L1.48109 5.95774C1.2594 6.04881 1.06995 6.20399 0.937003 6.40341C0.804059 6.60283 0.733678 6.83739 0.734878 7.07706V31.7262C0.73586 31.9233 0.785246 32.1172 0.878695 32.2908C0.972143 32.4643 1.10679 32.6123 1.27081 32.7216C1.43483 32.831 1.6232 32.8984 1.81936 32.9179C2.01552 32.9374 2.21347 32.9084 2.39581 32.8335L13.9742 28.0794L25.5164 34.001C25.6877 34.0887 25.8776 34.1341 26.0701 34.1334C26.1897 34.1515 26.3115 34.1515 26.4311 34.1334L38.4669 30.3782C38.7205 30.2988 38.9406 30.1376 39.0931 29.9199C39.2455 29.7022 39.3215 29.4401 39.3094 29.1746V4.51345C39.3031 4.31823 39.2494 4.12745 39.153 3.9576C39.0565 3.78776 38.9202 3.64394 38.7557 3.53856ZM36.842 28.284L26.8283 31.4133V28.6571H24.9026V31.0642L14.7926 25.8769V23.8428H12.8669V25.913L3.14202 29.9209V7.87142L12.8669 3.86352V6.69192H14.7926V3.87556L24.9026 9.05092V11.5784H26.8283V9.32774L36.842 6.15031V28.284Z" fill="white"/>
<path d="M24.9026 14.2142H26.8283V18.7998H24.9026V14.2142Z" fill="white"/>
<path d="M24.9026 21.4357H26.8283V26.0213H24.9026V21.4357Z" fill="white"/>
<path d="M12.8669 9.39995H14.7926V13.9856H12.8669V9.39995Z" fill="white"/>
<path d="M12.8669 16.7056H14.7926V21.219H12.8669V16.7056Z" fill="white"/>
</svg>
