<svg width="46" height="35" viewBox="0 0 46 35" fill="none" xmlns="http://www.w3.org/2000/svg">
<path d="M44.7243 10.9838C44.5822 10.9838 44.446 11.0403 44.3455 11.1407C44.245 11.2412 44.1886 11.3775 44.1886 11.5195V32.9481C44.1886 33.0902 44.1321 33.2264 44.0317 33.3269C43.9312 33.4274 43.7949 33.4838 43.6529 33.4838H1.86715C1.72507 33.4838 1.58881 33.4274 1.48835 33.3269C1.38788 33.2264 1.33144 33.0902 1.33144 32.9481V11.5195C1.33144 11.3775 1.275 11.2412 1.17453 11.1407C1.07407 11.0403 0.937804 10.9838 0.795724 10.9838C0.653644 10.9838 0.517383 11.0403 0.416917 11.1407C0.316451 11.2412 0.26001 11.3775 0.26001 11.5195V32.9481C0.26001 33.8342 0.981081 34.5552 1.86715 34.5552H43.6529C44.5389 34.5552 45.26 33.8342 45.26 32.9481V11.5195C45.26 11.3775 45.2036 11.2412 45.1031 11.1407C45.0026 11.0403 44.8664 10.9838 44.7243 10.9838Z" fill="white"/>
<path d="M43.6529 0.269531H1.86715C0.981081 0.269531 0.26001 0.990603 0.26001 1.87667V8.30525C0.26001 8.44733 0.316451 8.58359 0.416917 8.68405C0.517383 8.78452 0.653644 8.84096 0.795724 8.84096H44.7243C44.8664 8.84096 45.0026 8.78452 45.1031 8.68405C45.2036 8.58359 45.26 8.44733 45.26 8.30525V1.87667C45.26 0.990603 44.5389 0.269531 43.6529 0.269531ZM44.1886 7.76953H1.33144V1.87667C1.33144 1.73459 1.38788 1.59833 1.48835 1.49787C1.58881 1.3974 1.72507 1.34096 1.86715 1.34096H43.6529C43.7949 1.34096 43.9312 1.3974 44.0317 1.49787C44.1321 1.59833 44.1886 1.73459 44.1886 1.87667V7.76953Z" fill="white"/>
<path d="M19.01 30.2695C19.1521 30.2695 19.2884 30.2131 19.3888 30.1126C19.4893 30.0122 19.5457 29.8759 19.5457 29.7338V12.591C19.5457 12.4489 19.4893 12.3126 19.3888 12.2122C19.2884 12.1117 19.1521 12.0552 19.01 12.0552H5.08144C4.93936 12.0552 4.8031 12.1117 4.70263 12.2122C4.60217 12.3126 4.54572 12.4489 4.54572 12.591V29.7338C4.54572 29.8759 4.60217 30.0122 4.70263 30.1126C4.8031 30.2131 4.93936 30.2695 5.08144 30.2695H19.01ZM5.61715 13.1267H18.4743V29.1981H5.61715V13.1267Z" fill="white"/>
<path d="M24.3672 16.341H40.4386C40.5807 16.341 40.7169 16.2845 40.8174 16.1841C40.9179 16.0836 40.9743 15.9473 40.9743 15.8052C40.9743 15.6632 40.9179 15.5269 40.8174 15.4264C40.7169 15.326 40.5807 15.2695 40.4386 15.2695H24.3672C24.2251 15.2695 24.0888 15.326 23.9883 15.4264C23.8879 15.5269 23.8314 15.6632 23.8314 15.8052C23.8314 15.9473 23.8879 16.0836 23.9883 16.1841C24.0888 16.2845 24.2251 16.341 24.3672 16.341Z" fill="white"/>
<path d="M24.3672 21.6981H40.4386C40.5807 21.6981 40.7169 21.6417 40.8174 21.5412C40.9179 21.4407 40.9743 21.3045 40.9743 21.1624C40.9743 21.0203 40.9179 20.884 40.8174 20.7836C40.7169 20.6831 40.5807 20.6267 40.4386 20.6267H24.3672C24.2251 20.6267 24.0888 20.6831 23.9883 20.7836C23.8879 20.884 23.8314 21.0203 23.8314 21.1624C23.8314 21.3045 23.8879 21.4407 23.9883 21.5412C24.0888 21.6417 24.2251 21.6981 24.3672 21.6981Z" fill="white"/>
<path d="M24.3672 27.0552H40.4386C40.5807 27.0552 40.7169 26.9988 40.8174 26.8983C40.9179 26.7979 40.9743 26.6616 40.9743 26.5195C40.9743 26.3775 40.9179 26.2412 40.8174 26.1407C40.7169 26.0403 40.5807 25.9838 40.4386 25.9838H24.3672C24.2251 25.9838 24.0888 26.0403 23.9883 26.1407C23.8879 26.2412 23.8314 26.3775 23.8314 26.5195C23.8314 26.6616 23.8879 26.7979 23.9883 26.8983C24.0888 26.9988 24.2251 27.0552 24.3672 27.0552Z" fill="white"/>
<path d="M4.54572 5.62667C5.13746 5.62667 5.61715 5.14698 5.61715 4.55525C5.61715 3.96351 5.13746 3.48382 4.54572 3.48382C3.95399 3.48382 3.4743 3.96351 3.4743 4.55525C3.4743 5.14698 3.95399 5.62667 4.54572 5.62667Z" fill="white"/>
<path d="M8.83144 5.62667C9.42317 5.62667 9.90287 5.14698 9.90287 4.55525C9.90287 3.96351 9.42317 3.48382 8.83144 3.48382C8.2397 3.48382 7.76001 3.96351 7.76001 4.55525C7.76001 5.14698 8.2397 5.62667 8.83144 5.62667Z" fill="white"/>
<path d="M13.1172 5.62667C13.7089 5.62667 14.1886 5.14698 14.1886 4.55525C14.1886 3.96351 13.7089 3.48382 13.1172 3.48382C12.5254 3.48382 12.0457 3.96351 12.0457 4.55525C12.0457 5.14698 12.5254 5.62667 13.1172 5.62667Z" fill="white"/>
</svg>
