<svg width="46" height="39" viewBox="0 0 46 39" fill="none" xmlns="http://www.w3.org/2000/svg">
<path d="M38.2357 33.2641C40.2982 33.2641 41.9669 31.1295 41.9669 28.5205L41.9857 4.80244C41.9857 2.19346 40.2982 0.0588379 38.2357 0.0588379H8.23566C6.17316 0.0588379 4.48566 2.19346 4.48566 4.80244V28.5205C4.48566 31.1295 6.17316 33.2641 8.23566 33.2641H2.61066C1.57941 33.2641 0.735657 34.3314 0.735657 35.6359C0.735657 36.9404 1.57941 38.0077 2.61066 38.0077H43.8607C44.8919 38.0077 45.7357 36.9404 45.7357 35.6359C45.7357 34.3314 44.8919 33.2641 43.8607 33.2641H38.2357ZM10.1107 4.80244H36.3607C37.3919 4.80244 38.2357 5.86976 38.2357 7.17425V26.1487C38.2357 27.4532 37.3919 28.5205 36.3607 28.5205H10.1107C9.07941 28.5205 8.23566 27.4532 8.23566 26.1487V7.17425C8.23566 5.86976 9.07941 4.80244 10.1107 4.80244Z" fill="white"/>
</svg>
