<svg width="34" height="54" viewBox="0 0 34 54" fill="none" xmlns="http://www.w3.org/2000/svg">
<path d="M26.6975 3.84583C27.576 3.84583 28.4186 4.19482 29.0398 4.81603C29.661 5.43725 30.01 6.2798 30.01 7.15833V46.9083C30.01 47.7869 29.661 48.6294 29.0398 49.2506C28.4186 49.8718 27.576 50.2208 26.6975 50.2208H6.82251C5.94398 50.2208 5.10143 49.8718 4.48022 49.2506C3.85901 48.6294 3.51001 47.7869 3.51001 46.9083V7.15833C3.51001 6.2798 3.85901 5.43725 4.48022 4.81603C5.10143 4.19482 5.94398 3.84583 6.82251 3.84583H26.6975ZM6.82251 0.533325C5.06545 0.533325 3.38036 1.23131 2.13793 2.47374C0.895499 3.71617 0.19751 5.40127 0.19751 7.15833V46.9083C0.19751 48.6654 0.895499 50.3505 2.13793 51.5929C3.38036 52.8353 5.06545 53.5333 6.82251 53.5333H26.6975C28.4546 53.5333 30.1397 52.8353 31.3821 51.5929C32.6245 50.3505 33.3225 48.6654 33.3225 46.9083V7.15833C33.3225 5.40127 32.6245 3.71617 31.3821 2.47374C30.1397 1.23131 28.4546 0.533325 26.6975 0.533325H6.82251Z" fill="white"/>
<path d="M16.76 46.9083C17.6385 46.9083 18.4811 46.5593 19.1023 45.9381C19.7235 45.3169 20.0725 44.4744 20.0725 43.5958C20.0725 42.7173 19.7235 41.8748 19.1023 41.2535C18.4811 40.6323 17.6385 40.2833 16.76 40.2833C15.8815 40.2833 15.0389 40.6323 14.4177 41.2535C13.7965 41.8748 13.4475 42.7173 13.4475 43.5958C13.4475 44.4744 13.7965 45.3169 14.4177 45.9381C15.0389 46.5593 15.8815 46.9083 16.76 46.9083Z" fill="white"/>
</svg>
