<svg width="32" height="33" viewBox="0 0 32 33" fill="none" xmlns="http://www.w3.org/2000/svg">
<path fill-rule="evenodd" clip-rule="evenodd" d="M27.3375 5.22099C25.8615 3.73527 24.1053 2.5572 22.1708 1.75504C20.2362 0.952883 18.1617 0.54258 16.0674 0.547903C7.28562 0.547903 0.136661 7.69509 0.133111 16.4804C0.133111 19.2882 0.86611 22.0285 2.25934 24.4458L0 32.7005L8.44635 30.4837C10.7827 31.7556 13.4002 32.4224 16.0603 32.4236H16.0674C24.8474 32.4236 31.9964 25.2764 31.9999 16.4911C32.006 14.3977 31.597 12.3238 30.7968 10.3894C29.9965 8.45494 28.8207 6.6983 27.3375 5.22099V5.22099ZM16.0674 29.7348H16.0621C13.6901 29.735 11.3617 29.0968 9.32133 27.8872L8.83858 27.5997L3.8265 28.9148L5.16294 24.0287L4.8488 23.5282C3.52263 21.4169 2.8206 18.9737 2.82373 16.4804C2.82728 9.17883 8.76759 3.23852 16.0727 3.23852C17.8125 3.23466 19.5358 3.57588 21.1428 4.24245C22.7498 4.90902 24.2086 5.88769 25.4349 7.12182C26.6677 8.35007 27.6449 9.81048 28.3099 11.4186C28.9749 13.0268 29.3146 14.7508 29.3093 16.4911C29.3058 23.7927 23.3655 29.7348 16.0674 29.7348ZM23.3317 19.8153C22.9324 19.6148 20.9766 18.6528 20.6109 18.5197C20.2471 18.3866 19.9827 18.3209 19.7164 18.7185C19.4502 19.116 18.687 20.0123 18.4545 20.2785C18.222 20.5448 17.9895 20.5767 17.592 20.3779C17.1944 20.1791 15.9112 19.7585 14.3902 18.4026C13.2064 17.3465 12.4077 16.0438 12.1752 15.6445C11.9427 15.2452 12.1504 15.0304 12.3509 14.8316C12.5302 14.6541 12.7485 14.3666 12.9473 14.1341C13.1461 13.9016 13.2117 13.7366 13.3448 13.4703C13.478 13.2041 13.4123 12.9716 13.3111 12.7728C13.2117 12.5723 12.4148 10.6129 12.0829 9.81599C11.7617 9.04395 11.4334 9.14689 11.1884 9.13624C10.9348 9.12586 10.6809 9.12113 10.427 9.12204C10.2252 9.12718 10.0265 9.17398 9.84359 9.2595C9.66065 9.34501 9.49735 9.4674 9.36393 9.61899C8.99832 10.0183 7.9707 10.9803 7.9707 12.9397C7.9707 14.8991 9.39765 16.7928 9.59643 17.059C9.79521 17.3252 12.4042 21.3452 16.3975 23.0703C17.3488 23.4803 18.0907 23.7252 18.6675 23.9098C19.6206 24.2133 20.4885 24.1689 21.1753 24.0678C21.9403 23.9542 23.5305 23.1058 23.8624 22.1758C24.1943 21.2458 24.1943 20.4489 24.0949 20.2821C23.9955 20.1153 23.7275 20.0141 23.3317 19.8153" fill="white"/>
</svg>
