<svg width="1440" height="284" viewBox="0 0 1440 284" fill="none" xmlns="http://www.w3.org/2000/svg">
<path d="M0 52.4125L10 71.7311C20 90.8134 40 129.805 60 134.413C80 139.258 100 110.309 120 124.784C140 139.258 160 197.155 180 197.155C200 197.155 220 139.258 240 139.258C260 139.258 280 197.155 300 192.31C320 187.702 340 119.762 360 86.2053C380 52.4124 400 52.4124 420 86.2053C440 119.762 460 187.702 480 211.629C500 235.556 520 216.651 540 216.473C560 216.651 580 235.556 600 245.422C620 255.052 640 255.052 660 216.473C680 177.659 700 100.857 720 76.5165C740 52.4124 760 81.3609 780 115.154C800 148.71 820 187.702 840 168.206C860 148.71 880 71.9083 900 33.0938C920 -5.48444 940 -5.48444 960 8.98978C980 23.464 1000 52.4124 1020 66.8867C1040 81.3609 1060 81.3609 1080 100.68C1100 119.762 1120 158.754 1140 173.051C1160 187.702 1180 177.659 1200 177.836C1220 177.659 1240 187.702 1260 177.836C1280 168.206 1300 139.258 1320 119.939C1340 100.857 1360 90.8135 1380 90.9907C1400 90.8135 1420 100.857 1430 105.465L1440 110.309V284H1430C1420 284 1400 284 1380 284C1360 284 1340 284 1320 284C1300 284 1280 284 1260 284C1240 284 1220 284 1200 284C1180 284 1160 284 1140 284C1120 284 1100 284 1080 284C1060 284 1040 284 1020 284C1000 284 980 284 960 284C940 284 920 284 900 284C880 284 860 284 840 284C820 284 800 284 780 284C760 284 740 284 720 284C700 284 680 284 660 284C640 284 620 284 600 284C580 284 560 284 540 284C520 284 500 284 480 284C460 284 440 284 420 284C400 284 380 284 360 284C340 284 320 284 300 284C280 284 260 284 240 284C220 284 200 284 180 284C160 284 140 284 120 284C100 284 80 284 60 284C40 284 20 284 10 284H0V52.4125Z" fill="url(#paint0_linear)"/>
<defs>
<linearGradient id="paint0_linear" x1="0" y1="284" x2="0" y2="0.0820312" gradientUnits="userSpaceOnUse">
<stop stop-color="#3D5AFE"/>
<stop offset="1" stop-color="#4FC3F7"/>
</linearGradient>
</defs>
</svg>
